<?xml version="1.0" standalone="no"?><!DOCTYPE svg PUBLIC "-//W3C//DTD SVG 1.1//EN" "http://www.w3.org/Graphics/SVG/1.1/DTD/svg11.dtd"><svg t="1569073333845" class="icon" viewBox="0 0 1024 1024" version="1.1" xmlns="http://www.w3.org/2000/svg" p-id="25256" xmlns:xlink="http://www.w3.org/1999/xlink" width="200" height="200"><defs><style type="text/css"></style></defs><path d="M884.363636 884.363636h46.545455v46.545455H93.090909v-46.545455h46.545455V162.909091a23.272727 23.272727 0 0 1 23.272727-23.272727h418.909091a23.272727 23.272727 0 0 1 23.272727 23.272727V325.818182h186.181818l93.090909 93.090909v465.454545zM186.181818 884.363636h372.363637V186.181818H186.181818v698.181818z m651.636364 0V442.181818L768 372.363636H605.090909v512h232.727273z m-139.636364-418.909091h46.545455v325.818182h-46.545455v-325.818182z m-418.909091 256h186.181818v46.545455H279.272727v-46.545455z m0-139.636363h186.181818v46.545454H279.272727v-46.545454z m0-139.636364h186.181818v46.545455H279.272727v-46.545455z m0-139.636363h186.181818v46.545454H279.272727v-46.545454z" fill="#A7AACA" p-id="25257"></path></svg>