<?xml version="1.0" standalone="no"?><!DOCTYPE svg PUBLIC "-//W3C//DTD SVG 1.1//EN" "http://www.w3.org/Graphics/SVG/1.1/DTD/svg11.dtd"><svg t="1569072485410" class="icon" viewBox="0 0 1024 1024" version="1.1" xmlns="http://www.w3.org/2000/svg" p-id="7100" xmlns:xlink="http://www.w3.org/1999/xlink" width="200" height="200"><defs><style type="text/css"></style></defs><path d="M773.440872 851.287193L972.381471 775.533515c6.13842-3.06921 9.207629-9.06812 6.13842-15.20654L783.625068 254.883924c-3.06921-6.13842-9.207629-9.207629-15.206539-6.13842l-226.423979 84.961308v-55.245777c0-6.13842-6.13842-12.13733-12.137329-12.137329H328.544959V103.516076c0-6.13842-3.06921-12.13733-9.06812-12.137329H55.943324c-6.13842 0-9.207629 6.13842-9.207629 12.137329v750.700818H1.116076v78.404359h1021.767848v-81.473569H773.440872z m-533.344959 0H128.348774V162.807629h111.886648v688.479564z m210.101362 0h-121.791825V345.704632h121.791825v505.582561z m86.914442 0V410.576567l177.735149 440.710626H537.111717z m77.846321-462.892643l112.723706-42.689918 153.320981 388.53406-112.723706 42.689918-153.320981-388.53406z" p-id="7101" fill="#1296db"></path><path d="M160.854496 205.358038H206.474114v21.344959h-45.759128v-21.344959z m0 39.620709H206.474114v21.344959h-45.759128v-21.344959z m0 64.034877H206.474114v21.344959h-45.759128v-21.344959z m0 42.550409H206.474114v21.344959h-45.759128V351.564033z m0 45.759128H206.474114v21.344959h-45.759128v-21.344959z m205.218529 27.483379h45.759128v21.344959h-45.759128v-21.344959z m0 42.550408h45.759128v21.344959h-45.759128V467.356948z m0 45.759128h45.759128v21.344959h-45.759128v-21.344959z m297.713351-96.40109l42.410899-17.159673 7.952044 19.810355-42.410899 17.159673-7.952044-19.810355z m15.904087 39.34169l42.410899-17.159673 7.952044 19.810354-42.410899 17.159673-7.952044-19.810354z m16.322616 42.689918l42.410899-17.159673 7.952044 19.810354-42.410899 17.159673-7.952044-19.810354z m50.920981 123.744959l42.27139-17.159673 8.091553 19.810354-42.410899 17.159673-7.952044-19.810354z m15.904087 39.34169l42.410899-17.159674 7.952044 19.810355-42.27139 17.159673-8.091553-19.810354z m16.183106 42.550408l42.4109-17.159673 7.952043 19.810354-42.271389 17.020164-8.091554-19.670845zM160.854496 650.114441H206.474114v21.34496h-45.759128V650.114441z m0 60.965668H206.474114V732.425068h-45.759128v-21.344959z m0 60.965668H206.474114v21.344959h-45.759128v-21.344959z m0 0" p-id="7102" fill="#1296db"></path></svg>