<?xml version="1.0" standalone="no"?><!DOCTYPE svg PUBLIC "-//W3C//DTD SVG 1.1//EN" "http://www.w3.org/Graphics/SVG/1.1/DTD/svg11.dtd"><svg t="1569083227854" class="icon" viewBox="0 0 1024 1024" version="1.1" xmlns="http://www.w3.org/2000/svg" p-id="39228" xmlns:xlink="http://www.w3.org/1999/xlink" width="200" height="200"><defs><style type="text/css"></style></defs><path d="M797.1 135.8H653.7c0-39.6-32-71.8-71.8-71.8H438.7c-39.6 0-71.8 32-71.8 71.8H223.8c-39.5 0-71.8 32-71.8 71.8v680.8c0 39.5 32 71.8 71.8 71.8h573.5c39.5 0 71.8-32 71.8-71.8V207.3c-0.3-39.5-32.3-71.5-72-71.5z m-322.6 0h71.8c19.8 0 35.9 16.1 35.9 35.9s-16.1 35.9-35.9 35.9h-71.8c-19.8 0-35.9-16.1-35.9-35.9s16.2-35.9 35.9-35.9z m215.1 645H331.2c-19.8 0-35.9-16.1-35.9-35.9 0-78.2 50.1-144.7 119.9-169.2-18.9-21.9-30.3-50.6-30.3-81.7 0-69.3 56.2-125.5 125.5-125.5S635.9 424.7 635.9 494c0 31.2-11.4 59.9-30.3 81.7 69.8 24.5 119.9 91 119.9 169.2 0 19.8-16.1 35.9-35.9 35.9z" p-id="39229"></path></svg>