<?xml version="1.0" standalone="no"?><!DOCTYPE svg PUBLIC "-//W3C//DTD SVG 1.1//EN" "http://www.w3.org/Graphics/SVG/1.1/DTD/svg11.dtd"><svg t="1569084773177" class="icon" viewBox="0 0 1024 1024" version="1.1" xmlns="http://www.w3.org/2000/svg" p-id="47804" xmlns:xlink="http://www.w3.org/1999/xlink" width="200" height="200"><defs><style type="text/css"></style></defs><path d="M511.977 22.127c270.567 0 489.947 219.306 489.947 489.873 0 270.542-219.355 489.873-489.947 489.873V820.226h74.729c37.292 0 77.27 7.546 102.033-22.932 10.525-12.919 14.628-26.668 14.628-48.135V312.256c0-16.289 1.684-46.474-1.929-60.687-4.225-16.753-14.75-29.281-25.375-36.706-15.484-10.721-29.746-11.332-51.627-11.332H511.999V22.127h-0.023z m0 755.458c1.196 0 2.417-0.098 3.687-0.342 10.55-1.71 19.659-12.21 17.144-25.277-1.71-8.865-10.404-16.924-20.832-16.753v42.372z m0-84.987h148.849V267.345H511.977v425.253z m0-446.451h42.566l-0.023-21.418h-42.543v21.418z m0 755.726C241.41 1001.873 22.079 782.567 22.079 512S241.385 22.127 511.977 22.127v181.38h-74.535c-17.364 0-45.741-1.661-61.639 0.732-19.855 2.931-30.722 11.673-40.394 22.199-10.282 11.136-14.824 27.889-14.824 48.061v436.928c0 16.875-1.684 45.888 2.32 60.614 4.689 17.169 14.921 28.573 25.544 36.486 14.75 11.113 29.599 11.698 51.261 11.698h112.291v181.647h-0.023z m0-777.169h-42.591l0.098 21.418h42.494v-21.418z m0 42.64H363.079v424.985l3.346 0.293 145.553-0.049V267.345z m0 467.894c-1.001 0-2.052 0.098-3.102 0.293-27.304 4.908-21.296 42.494 3.102 42.078v-42.372z m0 0z" p-id="47805"></path></svg>