<?xml version="1.0" standalone="no"?><!DOCTYPE svg PUBLIC "-//W3C//DTD SVG 1.1//EN" "http://www.w3.org/Graphics/SVG/1.1/DTD/svg11.dtd"><svg t="1569083041313" class="icon" viewBox="0 0 1024 1024" version="1.1" xmlns="http://www.w3.org/2000/svg" p-id="37697" xmlns:xlink="http://www.w3.org/1999/xlink" width="200" height="200"><defs><style type="text/css"></style></defs><path d="M162.909091 92.679215C162.909091 41.493898 204.492676 0 255.622246 0L768.377754 0C819.581817 0 861.090909 41.410278 861.090909 92.679215L861.090909 931.320785C861.090909 982.5061 819.507326 1024 768.377754 1024L255.622246 1024C204.418184 1024 162.909091 982.589724 162.909091 931.320785L162.909091 92.679215ZM512 977.454545C550.559517 977.454545 581.818182 946.19588 581.818182 907.636364 581.818182 869.076848 550.559517 837.818182 512 837.818182 473.440483 837.818182 442.181818 869.076848 442.181818 907.636364 442.181818 946.19588 473.440483 977.454545 512 977.454545ZM256 93.090909 768 93.090909 768 791.272727 256 791.272727 256 93.090909Z" p-id="37698"></path></svg>