<?xml version="1.0" standalone="no"?><!DOCTYPE svg PUBLIC "-//W3C//DTD SVG 1.1//EN" "http://www.w3.org/Graphics/SVG/1.1/DTD/svg11.dtd"><svg t="1569072622728" class="icon" viewBox="0 0 1024 1024" version="1.1" xmlns="http://www.w3.org/2000/svg" p-id="9785" xmlns:xlink="http://www.w3.org/1999/xlink" width="200" height="200"><defs><style type="text/css"></style></defs><path d="M186.368 757.76c0-16.384-8.192-30.72-22.528-38.912V446.464L528.384 675.84c12.288 8.192 26.624 8.192 38.912 0l368.64-233.472c18.432-12.288 18.432-38.912 0-51.2l-368.64-233.472c-12.288-8.192-26.624-8.192-38.912 0l-409.6 258.048v299.008c-14.336 8.192-22.528 22.528-22.528 38.912 0 16.384 8.192 28.672 20.48 36.864l-43.008 75.776h135.168l-43.008-75.776c12.288-4.096 20.48-18.432 20.48-32.768z" p-id="9786"></path><path d="M546.816 743.424l-22.528-16.384-270.336-169.984v126.976l292.864 186.368 294.912-186.368v-126.976l-270.336 169.984z" p-id="9787"></path></svg>