<?xml version="1.0" standalone="no"?><!DOCTYPE svg PUBLIC "-//W3C//DTD SVG 1.1//EN" "http://www.w3.org/Graphics/SVG/1.1/DTD/svg11.dtd"><svg t="1569082907727" class="icon" viewBox="0 0 1024 1024" version="1.1" xmlns="http://www.w3.org/2000/svg" p-id="34865" xmlns:xlink="http://www.w3.org/1999/xlink" width="200" height="200"><defs><style type="text/css"></style></defs><path d="M879.78752 155.733333L738.134187 16.213333a45.226667 45.226667 0 0 0-34.133334-16.213333H183.040853A55.466667 55.466667 0 0 0 128.000853 55.893333V968.533333A55.466667 55.466667 0 0 0 183.040853 1024h657.92A55.466667 55.466667 0 0 0 896.000853 968.533333V192a49.066667 49.066667 0 0 0-16.213333-36.266667zM834.134187 170.666667H725.334187V63.573333z m6.826666 810.666666H183.040853a12.8 12.8 0 0 1-12.373333-12.8V55.893333A12.8 12.8 0 0 1 183.040853 42.666667H682.66752v149.333333a21.333333 21.333333 0 0 0 21.333333 21.333333H853.334187v755.2a12.8 12.8 0 0 1-12.373334 12.8z" fill="#4f79bc" p-id="34866"></path><path d="M698.880853 810.666667H319.574187a21.333333 21.333333 0 0 0 0 42.666666h379.306666a21.333333 21.333333 0 0 0 0-42.666666zM704.000853 597.333333a439.04 439.04 0 0 1-123.306666-64.853333v-8.96a163.413333 163.413333 0 0 0 26.453333-54.186667 59.306667 59.306667 0 0 0 8.533333-67.84v-42.666666A95.573333 95.573333 0 0 0 512.000853 256a96.426667 96.426667 0 0 0-103.68 105.813333v42.666667a58.026667 58.026667 0 0 0 8.533334 64.853333 162.986667 162.986667 0 0 0 26.453333 54.186667v8.106667A419.84 419.84 0 0 1 320.000853 597.333333a36.266667 36.266667 0 0 0-21.76 33.706667v53.333333a35.84 35.84 0 0 0 34.986667 36.693334h357.546667a35.84 35.84 0 0 0 34.986666-36.693334v-51.2a36.266667 36.266667 0 0 0-21.76-35.84z m-21.333333 83.2H341.334187v-42.666666c111.786667-47.786667 138.666667-71.253333 144.64-91.306667a21.333333 21.333333 0 0 0 0-5.973333v-21.333334a21.333333 21.333333 0 0 0-5.546667-14.08 117.76 117.76 0 0 1-24.32-49.493333 21.333333 21.333333 0 0 0-7.68-11.52 15.786667 15.786667 0 0 1 0-20.906667 21.333333 21.333333 0 0 0 4.266667-12.8V361.813333A54.613333 54.613333 0 0 1 512.000853 298.666667c42.666667 0 61.013333 19.626667 61.013334 61.866666V409.6a21.333333 21.333333 0 0 0 4.266666 12.8 15.786667 15.786667 0 0 1 0 20.906667 21.333333 21.333333 0 0 0-7.68 11.52 118.186667 118.186667 0 0 1-24.32 49.493333 21.333333 21.333333 0 0 0-5.546666 14.08v21.333333a21.333333 21.333333 0 0 0 0 5.973334c5.546667 20.053333 32.426667 42.666667 144.64 91.306666z" fill="#4f79bc" p-id="34867"></path></svg>