<?xml version="1.0" standalone="no"?><!DOCTYPE svg PUBLIC "-//W3C//DTD SVG 1.1//EN" "http://www.w3.org/Graphics/SVG/1.1/DTD/svg11.dtd"><svg t="1569082916422" class="icon" viewBox="0 0 1024 1024" version="1.1" xmlns="http://www.w3.org/2000/svg" p-id="34993" xmlns:xlink="http://www.w3.org/1999/xlink" width="200" height="200"><defs><style type="text/css"></style></defs><path d="M850.3 64h-672c-33.6 0-56 22.4-56 56v784c0 33.6 22.4 56 56 56h464.8c5.6 0 16.8 0 22.4-5.6l229.6-229.6c5.6-5.6 5.6-11.2 5.6-22.4V120c5.6-33.6-16.8-56-50.4-56z m-168 795.2V764c0-16.8 11.2-28 28-28h95.2L682.3 859.2z m168-179.2h-168c-33.6 0-56 22.4-56 56v168h-420c-16.8 0-28-11.2-28-28V148c0-16.8 11.2-28 28-28h616c16.8 0 28 11.2 28 28v532z" fill="#00b38a" p-id="34994"></path><path d="M592.7 366.4c22.4-22.4 33.6-50.4 33.6-78.4 0-61.6-50.4-112-112-112s-112 50.4-112 112c0 28 11.2 56 33.6 78.4-56 28-89.6 84-89.6 145.6 0 16.8 11.2 28 28 28s28-11.2 28-28c0-61.6 50.4-112 112-112s112 50.4 112 112c0 16.8 11.2 28 28 28s28-11.2 28-28c0-61.6-33.6-117.6-89.6-145.6zM514.3 344c-33.6 0-56-22.4-56-56s22.4-56 56-56 56 22.4 56 56-22.4 56-56 56zM542.3 624h-168c-16.8 0-28 11.2-28 28s11.2 28 28 28h168c16.8 0 28-11.2 28-28s-11.2-28-28-28zM486.3 736h-112c-16.8 0-28 11.2-28 28s11.2 28 28 28h112c16.8 0 28-11.2 28-28s-11.2-28-28-28z" fill="#00b38a" p-id="34995"></path></svg>