<?xml version="1.0" standalone="no"?><!DOCTYPE svg PUBLIC "-//W3C//DTD SVG 1.1//EN" "http://www.w3.org/Graphics/SVG/1.1/DTD/svg11.dtd"><svg t="1569083200191" class="icon" viewBox="0 0 1024 1024" version="1.1" xmlns="http://www.w3.org/2000/svg" p-id="38483" xmlns:xlink="http://www.w3.org/1999/xlink" width="200" height="200"><defs><style type="text/css"></style></defs><path d="M706.56 808.96v133.12l168.96-168.96h-133.12c-15.36-5.12-35.84 10.24-35.84 35.84zM512 194.56c-35.84-5.12-66.56 25.6-66.56 61.44s25.6 61.44 61.44 61.44 66.56-25.6 66.56-66.56c0-35.84-25.6-56.32-61.44-56.32z" p-id="38484"></path><path d="M890.88 0H133.12c-40.96 0-71.68 30.72-71.68 66.56v890.88c0 35.84 30.72 66.56 66.56 66.56h512v-281.6c0-20.48 15.36-40.96 40.96-40.96h276.48V66.56c0-35.84-30.72-66.56-66.56-66.56zM481.28 834.56H353.28c-20.48 0-30.72-15.36-30.72-30.72s10.24-35.84 30.72-35.84h128c20.48 0 30.72 15.36 30.72 30.72s-15.36 35.84-30.72 35.84z m61.44-128H353.28c-20.48 0-30.72-15.36-30.72-30.72s15.36-30.72 30.72-30.72h194.56c20.48 0 30.72 15.36 30.72 30.72s-15.36 30.72-35.84 30.72z m128-163.84c-20.48 0-30.72-15.36-30.72-30.72 0-107.52-128-184.32-240.64-76.8-15.36 15.36-20.48 40.96-15.36 66.56s-5.12 46.08-30.72 46.08c-20.48 0-30.72-15.36-30.72-30.72 0-71.68 35.84-133.12 102.4-163.84-30.72-35.84-40.96-66.56-40.96-97.28 0-71.68 56.32-128 128-128s128 56.32 128 128c0 30.72-10.24 61.44-35.84 87.04 61.44 30.72 102.4 97.28 102.4 163.84-5.12 25.6-15.36 35.84-35.84 35.84z" p-id="38485"></path></svg>