<?xml version="1.0" standalone="no"?><!DOCTYPE svg PUBLIC "-//W3C//DTD SVG 1.1//EN" "http://www.w3.org/Graphics/SVG/1.1/DTD/svg11.dtd"><svg t="1569073449710" class="icon" viewBox="0 0 1024 1024" version="1.1" xmlns="http://www.w3.org/2000/svg" p-id="26642" xmlns:xlink="http://www.w3.org/1999/xlink" width="200" height="200"><defs><style type="text/css"></style></defs><path d="M457.351 595.298c0-13.324-10.273-23.596-23.671-23.596h-150.431c-13.101 0-23.41 10.272-23.41 23.596 0 12.803 10.308 23.075 23.41 23.075h150.432c13.398 0 23.67-10.272 23.67-23.075v0zM944.009 299.309v0l-282.63-282.668c-7.184-6.925-16.971-11.388-27.764-11.388h-463.359c-28.659 0-54.785 11.686-73.692 30.556-19.13 19.166-30.964 45.258-30.964 74.174v807.697c0 29.139 11.835 54.636 30.964 73.838v0 0c18.907 18.908 45.033 30.818 73.692 30.818h680.784c28.025 0 54.115-11.351 73.021-29.921l0.523-0.897h0.259c19.168-19.202 30.854-45.257 30.854-73.838v-590.012c0-10.273-3.871-20.582-11.686-28.361v0zM657.284 123.009v0l180.394 181.027h-138.485c-11.202 0-22.257-5.286-29.438-12.73l-1.155-1.19c-7.22-7.183-11.314-17.491-11.314-28.023v-139.084zM877.39 917.679v0c0 7.218-2.83 13.92-7.443 18.607h-0.261c-4.763 4.95-11.427 8.039-18.646 8.039h-680.783c-6.924 0-13.659-3.089-18.647-8.039v0c-4.354-4.689-7.742-11.389-7.742-18.607v-807.697c0-7.257 3.387-13.843 7.742-18.607 4.987-5.285 11.724-7.815 18.647-7.815h439.687v178.534c0 23.111 9.79 44.995 25.345 60.812l1.154 1.675c16.079 16.414 38.334 26.127 62.75 26.127h178.197v566.973h-0.001zM282.614 405.975v0h-3.607v1.079h-1.936l-0.222 0.596h-0.783l-0.633 0.519h-1.673v0.519h-1.415l-0.259 0.3-0.522 0.596h-0.522l-0.633 0.518h-0.26l-0.259 0.223v0.336l-0.522 0.336-0.633 0.223-0.522 0.297v0.522h-0.519l-0.634 0.558-0.522 0.559v0.519h-0.745v0.595h-0.41v0.595h-0.522l-0.259 0.484-0.259 0.261-0.223 0.669-0.297 0.522h-0.373l-0.222 0.818-0.522 0.3v0.519l-0.522 0.261v0.558l-0.669 1.116v1.676l-0.484 0.259v1.116l-0.522 0.522v1.451l-0.669 0.522v7.854h0.669v1.899l0.522 0.484v1.19l0.484 0.519v1.414l0.669 0.522v0.558l0.522 0.558v0.519l0.522 0.595 0.222 0.3 0.373 0.518 0.297 0.298 0.223 0.559 0.259 0.336 0.259 0.483 0.522 0.522 0.41 0.336h0.745v0.596l0.522 1.079h0.634l0.519 0.558v0.522l0.522 0.522h1.154v0.297l0.259 0.371 0.26 0.223 0.633 0.26 0.522 0.261h0.522l0.259 0.595h0.894l0.522 0.558h0.631l0.522 0.26v0.261h1.153v0.259h1.005l0.522 0.596h465.962l0.259-0.596h1.938v-0.259h1.153v-0.261l0.519-0.26h0.634l0.519-0.558h0.484l0.67-0.595 0.518-0.261 0.222-0.26 0.932-0.223 0.259-0.371v-0.297h0.747l0.668-0.522 1.006-1.078h0.669v-1.079l0.483-0.596h0.522v-0.336l0.668-0.522 0.223-0.483 0.26-0.336 0.261-0.559 0.259-0.298 0.522-0.518v-0.3l0.634-0.595 0.259-0.519 0.261-0.558 0.519-0.558v-1.116l0.634-0.26v-0.559l0.518-0.519v-1.675l0.522-0.261v-10.869l-0.522-0.595v-1.638l-0.518-0.259v-0.522l-0.634-0.558v-1.712l-0.519-0.558-0.261-0.261-0.259-0.519-0.634-0.3v-0.818h-0.522l-0.259-0.522-0.261-0.669-0.26-0.261-0.223-0.484h-0.668v-1.19h-0.522l-0.483-0.519v-0.559l-0.669-0.558h-0.519l-0.485-0.522-0.668-0.297-0.26-0.223-0.485-0.336v-0.336l-0.259-0.223h-0.932l-0.222-0.518h-0.518v-0.596l-0.67-0.3h-1.005v-0.519h-1.675l-0.633-0.519h-1.044l-0.893-0.596h-1.301v-1.079h-459.898zM737.525 534.783v0c-23.932-24.155-56.72-39.189-93.603-39.189-36.4 0-69.673 15.036-93.604 39.189-23.931 23.558-38.855 56.906-38.855 93.267 0 17.789 3.349 34.686 10.049 50.243l-84.223 145.521c-3.612 5.062-4.764 11.985-3.089 18.349 3.348 12.468 16.19 19.985 28.917 16.415l66.098-17.27 17.751 66.098h0.633c1.043 6.102 4.652 10.793 10.161 14.402 11.425 6.178 25.567 2.493 32.006-8.895l54.153-93.826 52.959 92.188c2.831 5.844 8.113 10.794 15.037 12.469 12.468 3.609 25.605-3.612 28.916-16.337l17.754-66.098 66.358 17.27c5.506 1.635 11.945 1.041 17.974-1.936 10.571-6.701 14.517-20.841 8.113-32.306l-84.075-146.042c6.030-15.555 9.381-32.454 9.381-50.243 0.001-36.362-15.036-69.707-38.817-93.267v0zM623.342 761.364v0l-45.517 79.347-9.118-34.948c-3.35-11.65-16.452-18.834-28.921-16.116h-0.558l-33.682 8.858 44.474-76.63h0.298c20.544 20.803 45.517 32.787 73.541 37.291v0h0.894l-1.413 2.197zM573.061 675.84v0l-1.414-1.155v-0.483c-8.597-13.399-13.248-29.217-13.248-46.15 0-23.596 9.677-44.958 24.933-60.441 15.559-15.596 36.921-25.345 60.592-25.345 23.52 0 45.257 9.749 60.553 25.345 15.817 15.483 25.196 36.846 25.196 60.441 0 23.111-8.858 43.619-23.931 59.437v0l-1.265 1.079c-36.399 36.623-103.13 33.311-131.415-12.727v0zM782.522 798.508v0l-34.464-8.858c-12.206-2.717-25.605 4.466-28.917 16.116l-9.155 34.948-46.15-79.347-0.782-2.196h1.414l0.782-0.596h0.522c27.242-4.43 51.172-16.374 71.755-36.697v0l44.997 76.63zM283.248 288.181v0h251.517c12.838 0 23.372-10.793 23.372-23.597 0-13.285-10.533-23.596-23.372-23.596h-251.517c-13.101 0-23.41 10.309-23.41 23.596 0 12.803 10.308 23.597 23.41 23.597v0z" p-id="26643"></path></svg>