<?xml version="1.0" standalone="no"?><!DOCTYPE svg PUBLIC "-//W3C//DTD SVG 1.1//EN" "http://www.w3.org/Graphics/SVG/1.1/DTD/svg11.dtd"><svg t="1569073528887" class="icon" viewBox="0 0 1024 1024" version="1.1" xmlns="http://www.w3.org/2000/svg" p-id="28075" xmlns:xlink="http://www.w3.org/1999/xlink" width="200" height="200"><defs><style type="text/css"></style></defs><path d="M812.465364 1023.964232H102.647182c-48.33383 0-87.66617-38.342772-87.666169-85.460506V85.460507C14.981013 38.330849 54.325275 0 102.647182 0h762.837556c48.321908 0 87.66617 38.390462 87.66617 85.460507V347.183308a28.614009 28.614009 0 0 1-57.228018 0V85.460507c0-15.57079-13.651267-28.232489-30.438152-28.232489H102.647182c-16.786885 0-30.438152 12.673621-30.438152 28.232489V938.539493c0 15.57079 13.651267 28.232489 30.438152 28.232489h709.818182a28.614009 28.614009 0 0 1 0 57.228018z" fill="#AAAAAA" p-id="28076"></path><path d="M781.466855 219.374069H184.244798a28.614009 28.614009 0 0 1 0-57.228018h597.222057a28.614009 28.614009 0 0 1 0 57.228018zM638.39681 422.056632H184.244798a28.614009 28.614009 0 0 1 0-57.228018h454.152012a28.614009 28.614009 0 0 1 0 57.228018zM597.860297 624.739195H184.244798a28.614009 28.614009 0 1 1 0-57.228018h413.615499a28.614009 28.614009 0 0 1 0 57.228018zM547.785782 827.421759H184.244798a28.614009 28.614009 0 1 1 0-57.228018h363.540984a28.614009 28.614009 0 0 1 0 57.228018zM830.73064 506.336811a65.371088 65.371088 0 1 1-65.371088 65.371088 65.442623 65.442623 0 0 1 65.371088-65.371088m0-23.845008a89.216095 89.216095 0 1 0 89.216095 89.216096 89.216095 89.216095 0 0 0-89.216095-89.216096z" fill="#AAAAAA" p-id="28077"></path><path d="M1008.983993 564.304024a178.253353 178.253353 0 1 0-292.196721 137.108793l0.369597 209.967213a27.695976 27.695976 0 0 0 8.345753 24.918033 30.175857 30.175857 0 0 0 32.345753 6.056631l5.591654-2.28912 73.704918-100.256334 75.588674 101.102832 3.970193 2.229508a27.290611 27.290611 0 0 0 27.052161-0.250373 26.885246 26.885246 0 0 0 13.293592-23.105812V690.134128a177.645306 177.645306 0 0 0 51.934426-125.830104z m-313.561848 0a135.33234 135.33234 0 1 1 39.642325 95.690015 134.450075 134.450075 0 0 1-39.66617-95.690015zM858.867749 797.222057l-1.895678-1.597616a30.99851 30.99851 0 0 0-40.834576 0.870343l-1.52608 1.359165-54.605067 74.312966-0.250373-144.262295a178.539493 178.539493 0 0 0 154.312966-5.961252v149.102832z" fill="#AAAAAA" p-id="28078"></path></svg>