<?xml version="1.0" standalone="no"?><!DOCTYPE svg PUBLIC "-//W3C//DTD SVG 1.1//EN" "http://www.w3.org/Graphics/SVG/1.1/DTD/svg11.dtd"><svg t="1569072315777" class="icon" viewBox="0 0 1024 1024" version="1.1" xmlns="http://www.w3.org/2000/svg" p-id="5706" xmlns:xlink="http://www.w3.org/1999/xlink" width="25" height="25"><defs><style type="text/css"></style></defs><path d="M782.761704 107.24249s-28.708855-28.708855-57.417711 0L139.105175 693.482331l-14.941294 14.941294L287.426245 871.726921l23.931039 23.931039 13.240559 13.240559 28.628014-28.628014-0.040932-0.040933 458.123952-458.123952 0.040932 0.040933 28.628014-28.628015-0.040932-0.040932 85.842087-85.842087c28.708855-28.708855 0-57.417711 0-57.417711L782.761704 107.24249zM324.476069 851.52174l-142.976342-142.976342 458.123952-458.163861 142.976342 142.976342-458.123952 458.163861zM811.228035 364.770797l-142.976342-142.976342 85.842087-85.842087 142.976342 142.976342-85.842087 85.842087z" fill="#000" p-id="5707"></path><path d="M142.042063 871.819019l25.083282-120.392998-43.447535-43.447534-37.953403 219.645512c-2.004657 11.604292 8.103562 21.686928 19.702737 19.650549l219.129766-38.45687-13.20065-13.159718-23.890106-23.931039-126.060067 20.354584c-11.773138 1.90028-21.796422-8.587586-19.364024-20.262486zM720.128201 958.708971c-13.32447 0-26.649963-5.298679-36.475749-15.742542l-590.969563-629.40085c-9.157567-9.723455-13.942547-22.430872-13.530155-35.806508 0.411369-13.376659 6.019087-25.775037 15.793708-34.881438L269.659603 78.81402c19.909445-18.881023 51.806923-17.851577 70.687945 2.212388l590.969563 629.40085c9.157567 9.723455 13.942547 22.430872 13.530155 35.806508-0.411369 13.376659-6.019087 25.775037-15.794732 34.881438L754.340397 945.178817c-9.568936 9.054213-21.916149 13.530155-34.212196 13.530154zM305.826314 113.488751L127.35762 277.450033l590.815043 633.05303 178.468694-163.961282c1.028423-0.977257 1.080611-2.623757 0.103354-3.704369L305.826314 113.488751z" fill="#000" p-id="5708"></path></svg>