<?xml version="1.0" standalone="no"?><!DOCTYPE svg PUBLIC "-//W3C//DTD SVG 1.1//EN" "http://www.w3.org/Graphics/SVG/1.1/DTD/svg11.dtd"><svg t="1569073660467" class="icon" viewBox="0 0 1142 1024" version="1.1" xmlns="http://www.w3.org/2000/svg" p-id="30690" xmlns:xlink="http://www.w3.org/1999/xlink" width="25" height="25"><defs><style type="text/css"></style></defs><path d="M481.395012 202.928612h179.243861v63.354274H481.395012z m0 222.227299h179.243861v64.718827H481.395012z m375.837046 218.03617h57.311251v179.24386h-57.311251z m0-241.331049h57.311251v179.24386h-57.311251zM240.063963 643.192081h179.243861v63.354273H240.063963z" fill="#000" p-id="30691"></path><path d="M1062.499905 964.154578v-761.225966h-282.657529V0.097468H118.131354v964.05711H0.097468v59.845422h1141.936417v-59.845422z m-61.112507-703.914715v703.914715h-221.252618V259.752522h221.252618zM722.823529 59.94289v904.211688H179.243861V59.94289z" fill="#000" p-id="30692"></path><path d="M240.063963 425.155911h179.243861v64.718827H240.063963z m241.331049 218.03617h179.243861v63.354273H481.395012zM240.063963 202.928612h179.243861v63.354274H240.063963z" fill="#000" p-id="30693"></path></svg>