<?xml version="1.0" standalone="no"?><!DOCTYPE svg PUBLIC "-//W3C//DTD SVG 1.1//EN" "http://www.w3.org/Graphics/SVG/1.1/DTD/svg11.dtd"><svg t="1569073180283" class="icon" viewBox="0 0 1024 1024" version="1.1" xmlns="http://www.w3.org/2000/svg" p-id="17679" xmlns:xlink="http://www.w3.org/1999/xlink" width="25" height="25"><defs><style type="text/css"></style></defs><path d="M990.856533 306.3808L539.101867 74.990933a59.221333 59.221333 0 0 0-54.715734 0L32.085333 306.3808c-19.456 9.898667-31.744 29.2864-31.744 50.619733 0 21.367467 12.288 41.233067 31.744 51.165867l136.0896 69.495467v371.370666c0 5.973333 1.024 11.946667 3.072 17.885867 4.608 15.394133 14.336 28.808533 27.648 38.229333a410.5216 410.5216 0 0 0 131.959467 57.617067 659.797333 659.797333 0 0 0 172.919467 26.282667h8.704a848.759467 848.759467 0 0 0 199.509333-35.2256c94.651733-28.330667 140.1856-61.576533 140.1856-101.7856V477.661867l118.6816-59.562667v281.4976c0 13.9264 11.776 25.326933 26.112 25.326933 14.336 0 26.077867-11.400533 26.077867-25.326933V357.034667c0.512-21.333333-12.288-41.198933-32.221867-50.619734zM698.743467 907.605333a809.745067 809.745067 0 0 1-185.207467 33.28h-7.68a635.357867 635.357867 0 0 1-158.583467-24.337066 362.871467 362.871467 0 0 1-113.595733-48.162134c-6.621867-5.461333-10.717867-10.4448-10.717867-13.892266-0.512-1.024 0-350.549333 0-350.549334l263.4752 132.096c17.408 8.9088 37.853867 8.9088 54.715734 0l262.9632-132.096-3.072 351.5392c-3.072 6.929067-25.053867 28.7744-102.2976 52.1216z m-184.183467-314.7776a7.7824 7.7824 0 0 1-6.656 0l-451.754667-229.376c-2.56-1.501867-3.549867-3.4816-3.549866-6.485333 0-2.4576 1.501867-4.949333 3.549866-6.4512L507.904 120.661333h6.656L966.314667 350.549333c2.56 1.501867 3.584 3.4816 3.584 6.485334a8.430933 8.430933 0 0 1-3.584 6.4512l-451.754667 229.376z" fill="#000" p-id="17680"></path></svg>