<?xml version="1.0" standalone="no"?><!DOCTYPE svg PUBLIC "-//W3C//DTD SVG 1.1//EN" "http://www.w3.org/Graphics/SVG/1.1/DTD/svg11.dtd"><svg t="1569072695476" class="icon" viewBox="0 0 1024 1024" version="1.1" xmlns="http://www.w3.org/2000/svg" p-id="11172" xmlns:xlink="http://www.w3.org/1999/xlink" width="25" height="25"><defs><style type="text/css"></style></defs><path d="M335.872 610.304h-151.04c-16.384 0-27.648 11.264-27.648 27.648s11.264 27.648 27.648 27.648h151.04c16.384 0 27.648-11.264 27.648-27.648 0-16.896-10.752-27.648-27.648-27.648zM185.344 207.872c-16.384 0-27.648 11.264-27.648 27.648s11.264 27.648 27.648 27.648h502.784c16.384 0 27.648-11.264 27.648-27.648s-11.264-27.648-27.648-27.648h-502.784z" fill="#000" p-id="11173"></path><path d="M61.952 914.432V109.568c0-23.552 24.064-47.616 47.616-47.616H879.104c19.456 0 32.768 25.088 32.768 47.616v555.52h55.296V109.568c0-67.584-34.304-102.912-68.096-102.912h-804.352c-47.104 0-88.064 40.96-88.064 88.064v834.56c0 39.424 47.616 88.064 102.912 88.064H363.52v-55.296h-253.952c-23.552 0-47.616-24.064-47.616-47.616z" fill="#000" p-id="11174"></path><path d="M413.696 436.736c0-16.384-11.264-27.648-27.648-27.648h-201.216c-16.384 0-27.648 11.264-27.648 27.648s11.264 27.648 27.648 27.648h201.216c16.896 0 27.648-11.264 27.648-27.648zM866.816 657.92c16.896-34.816 24.576-64 24.576-95.232 0-103.936-84.48-188.416-188.416-188.416S514.56 458.752 514.56 562.688c0 30.208 10.24 60.928 19.968 90.112l-137.216 274.944 128.512-15.36 67.072 108.032 115.712-221.184L834.56 1020.928l51.2-114.176 128.512 5.12L866.816 657.92zM678.912 750.592l-87.04 168.96-38.912-62.976-72.192 9.728 91.648-173.568c35.84 34.304 69.632 52.736 106.496 57.856z m167.424-183.296c0 35.84-15.36 74.752-39.424 98.816-25.6 25.6-60.416 39.424-98.816 39.424s-73.216-13.824-98.816-39.424-39.424-60.416-39.424-98.816c0-35.84 15.36-74.752 39.424-98.816 25.6-25.6 60.416-39.424 98.816-39.424 35.84 0 74.752 15.36 98.816 39.424 25.6 25.6 39.424 60.928 39.424 98.816z m-3.072 130.048l91.648 163.84-72.192-4.608-33.792 62.976-96.768-168.96c41.984-5.632 80.896-24.576 111.104-53.248z" fill="#000" p-id="11175"></path></svg>