<?xml version="1.0" standalone="no"?><!DOCTYPE svg PUBLIC "-//W3C//DTD SVG 1.1//EN" "http://www.w3.org/Graphics/SVG/1.1/DTD/svg11.dtd"><svg t="1569031823912" class="icon" viewBox="0 0 1024 1024" version="1.1" xmlns="http://www.w3.org/2000/svg" p-id="3475" xmlns:xlink="http://www.w3.org/1999/xlink" width="200" height="200"><defs><style type="text/css"></style></defs><path d="M748.3 160.2H275.7c-33.1 0-60 26.9-60 60v583.6c0 33.1 26.9 60 60 60h472.6c33.1 0 60-26.9 60-60V220.2c0-33.1-26.9-60-60-60z m20 643.6c0 11-9 20-20 20H275.7c-11 0-20-9-20-20V220.2c0-11 9-20 20-20h472.6c11 0 20 9 20 20v583.6z" fill="#000" p-id="3476"></path><path d="M511.5 364.3c29.5 0.2 53.3-24.1 53.1-54.2 0.2-29.8-23.6-54.1-53.1-54.2-29.5 0.1-53.3 24.4-53.1 54.2-0.2 30.1 23.6 54.4 53.1 54.2zM683.5 547.5H339.8c-11 0-20 9-20 20s9 20 20 20h343.7c11 0 20-9 20-20s-8.9-20-20-20zM683.5 632.3H339.8c-11 0-20 9-20 20s9 20 20 20h343.7c11 0 20-9 20-20s-8.9-20-20-20zM683.5 716.2H339.8c-11 0-20 9-20 20s9 20 20 20h343.7c11 0 20-9 20-20s-8.9-20-20-20z" fill="#000" p-id="3477"></path><path d="M419.7 479.7c10.9 1.7 21.2-5.4 22.9-15.9 0-0.2 2.9-15.9 13.1-31.5 13.1-20 31.4-29.7 55.8-29.7 24.6 0 42.8 9.4 55.8 28.9 10.5 15.8 13.2 32.4 13.2 32.4 1.4 9.6 10 16.5 19.8 16.5 0.9 0 1.9-0.1 2.8-0.2 10.9-1.5 18.5-11.2 17-21.7-0.4-2.4-3.9-24.1-18.2-46.3-20.2-31.4-51.5-48-90.4-48-38.2 0-69.2 16.5-89.6 47.6-14.5 22-18.4 43.4-18.8 45.8-1.8 10.6 5.7 20.4 16.6 22.1z" fill="#000" p-id="3478"></path></svg>