<?xml version="1.0" standalone="no"?><!DOCTYPE svg PUBLIC "-//W3C//DTD SVG 1.1//EN" "http://www.w3.org/Graphics/SVG/1.1/DTD/svg11.dtd"><svg t="1569158654519" class="icon" viewBox="0 0 1024 1024" version="1.1" xmlns="http://www.w3.org/2000/svg" p-id="2018" xmlns:xlink="http://www.w3.org/1999/xlink" width="25" height="25"><defs><style type="text/css"></style></defs><path d="M828.509091 32.581818H251.345455C172.218182 32.581818 102.4 97.745455 102.4 186.181818v83.781818h55.854545V214.109091C162.909091 144.290909 214.109091 93.090909 279.272727 93.090909h521.309091c65.163636 0 121.018182 55.854545 121.018182 121.018182v595.781818c0 69.818182-51.2 121.018182-121.018182 121.018182H279.272727c-65.163636 0-121.018182-55.854545-121.018182-121.018182v-55.854545H102.4V837.818182c0 83.781818 65.163636 153.6 148.945455 153.6h577.163636c83.781818 0 148.945455-69.818182 148.945454-153.6V186.181818C977.454545 97.745455 912.290909 32.581818 828.509091 32.581818" fill="#000" p-id="2019"></path><path d="M539.927273 512c-55.854545 0-97.745455-46.545455-97.745455-102.4s41.890909-102.4 97.745455-102.4 97.745455 46.545455 97.745454 102.4-41.890909 102.4-97.745454 102.4m223.418182 223.418182c0-88.436364-55.854545-167.563636-130.327273-204.8 37.236364-27.927273 55.854545-74.472727 55.854545-121.018182 0-83.781818-65.163636-153.6-148.945454-153.6-79.127273 0-148.945455 69.818182-148.945455 153.6 0 51.2 23.272727 93.090909 55.854546 121.018182-74.472727 32.581818-125.672727 111.709091-130.327273 200.145454v4.654546c0 13.963636 9.309091 23.272727 23.272727 23.272727s23.272727-9.309091 23.272727-23.272727c0-93.090909 69.818182-167.563636 158.254546-176.872727h27.927273c88.436364 9.309091 153.6 79.127273 158.254545 172.218181v9.309091c0 13.963636 9.309091 23.272727 23.272727 23.272728s23.272727-9.309091 23.272728-23.272728l9.309091-4.654545M190.836364 423.563636H74.472727c-13.963636 0-27.927273-13.963636-27.927272-32.581818 0-18.618182 13.963636-27.927273 27.927272-27.927273h116.363637c13.963636 0 27.927273 13.963636 27.927272 27.927273 0 18.618182-9.309091 32.581818-27.927272 32.581818m0 116.363637H74.472727c-13.963636 0-27.927273-9.309091-27.927272-27.927273 0-18.618182 13.963636-27.927273 27.927272-27.927273h116.363637c13.963636 0 27.927273 13.963636 27.927272 27.927273 0 18.618182-9.309091 27.927273-27.927272 27.927273m0 121.018182H74.472727c-13.963636 0-27.927273-13.963636-27.927272-27.927273s13.963636-27.927273 27.927272-27.927273h116.363637c13.963636 0 27.927273 13.963636 27.927272 27.927273s-9.309091 27.927273-27.927272 27.927273" fill="#000" p-id="2020"></path></svg>