<?xml version="1.0" standalone="no"?><!DOCTYPE svg PUBLIC "-//W3C//DTD SVG 1.1//EN" "http://www.w3.org/Graphics/SVG/1.1/DTD/svg11.dtd"><svg t="1569072777851" class="icon" viewBox="0 0 1024 1024" version="1.1" xmlns="http://www.w3.org/2000/svg" p-id="13522" xmlns:xlink="http://www.w3.org/1999/xlink" width="25" height="25"><defs><style type="text/css"></style></defs><path d="M930.51904 467.53792a27.83232 27.83232 0 0 0-27.83744 27.83232v322.86208c0 46.03904-37.4528 83.49696-83.49696 83.49696H206.8736c-46.03904 0-83.49696-37.4528-83.49696-83.49696V205.91104c0-46.03904 37.45792-83.49696 83.49696-83.49696h397.0816a27.83232 27.83232 0 0 0 0-55.66464H206.8736c-76.73344 0-139.1616 62.42816-139.1616 139.1616V818.2272c0 76.73344 62.42816 139.1616 139.1616 139.1616h612.31616c76.73344 0 139.1616-62.42304 139.1616-139.1616V495.37024a27.83232 27.83232 0 0 0-27.83232-27.83232z" fill="#000" p-id="13523"></path><path d="M369.06496 499.48672a27.48416 27.48416 0 0 0-4.33152 6.5024l-92.52352 200.99072c-15.40608 33.47456-4.096 52.08064 4.0192 60.20096 5.18144 5.18144 14.6432 11.66336 29.5168 11.66336 8.4224 0 18.57536-2.08384 30.67392-7.64928l201.00096-92.52352c2.45248-1.1264 4.55168-2.65216 6.49216-4.33152a95.30368 95.30368 0 0 0 30.29504-20.44416l354.60096-354.58048c37.26336-37.27872 37.26336-97.92-0.00512-135.1936l-49.5104-49.5104c-18.05824-18.05824-42.06592-28.00128-67.59936-28.00128s-49.54624 9.94304-67.59936 28.00128L389.50912 469.19168a95.47264 95.47264 0 0 0-20.44416 30.29504z m-38.07744 212.93056l52.68992-114.45248c1.8432 2.20672 3.76832 4.36736 5.83168 6.4256l49.5104 49.51552c2.05824 2.05824 4.21888 3.97824 6.4256 5.83168l-114.4576 52.67968z m452.45952-558.44864a39.68 39.68 0 0 1 28.24704-11.6992c10.66496 0 20.69504 4.15744 28.24192 11.6992l49.50528 49.5104c15.56992 15.56992 15.56992 40.90368 0.01024 56.4736l-76.16 76.15488-105.99424-105.984 76.14976-76.15488zM428.86656 508.55424l239.06816-239.07328 105.98912 105.984-239.0784 239.07328a39.6544 39.6544 0 0 1-28.22656 11.68896 39.71072 39.71072 0 0 1-28.24192-11.68896l-49.5104-49.52064a39.65952 39.65952 0 0 1-11.6992-28.23168 39.68 39.68 0 0 1 11.6992-28.23168z" fill="#000" p-id="13524"></path></svg>